# xmcd CD database file
# 
# Track frame offsets:
# 	150
# 	13010
# 	35109
# 	50114
# 	65863
# 	82131
# 	97325
# 	113853
# 	125178
# 	140499
# 	151094
# 	168600
# 
# Disc length: 2564 seconds
# 
# Submitted via: Nero 6, 6, 0, 0
# 
# Revision: 0
# Processed by: cddbd v1.5.1PL0 Copyright (c) Steve Scherf et al.
#
DISCID=bb0a020c
DTITLE=Speed Limit - Farmers Daughter
DYEAR=1900
DGENRE=
TTITLE0=I Wanna Live Again
TTITLE1=Farmer Daughter
TTITLE2=Tonight The Heartaches On Me
TTITLE3=Tougher Than The Rest
TTITLE4=Mexican Wind
TTITLE5=I'll Think Of A Reason Later
TTITLE6=Write This Down
TTITLE7=True Lies
TTITLE8=All Of This Love
TTITLE9=One Of You
TTITLE10=Almost Jamaica
TTITLE11=Special Absent Friends
EXTD=
EXTT0=
EXTT1=
EXTT2=
EXTT3=
EXTT4=
EXTT5=
EXTT6=
EXTT7=
EXTT8=
EXTT9=
EXTT10=
EXTT11=
PLAYORDER=
